<svg version="1.2" xmlns="http://www.w3.org/2000/svg" viewBox="100 0 350 200" width="695" height="100">
	<title>lefeef_title_dark_source</title>
	<defs>
		<linearGradient id="g1" x2="1" gradientUnits="userSpaceOnUse" gradientTransform="matrix(0,104.212,-556.999,0,157.508,-6.989)">
			<stop offset="0" stop-color="#7b1bc7"/>
			<stop offset="1" stop-color="#1519a5"/>
		</linearGradient>
	</defs>
	<style>
		.s0 { fill: #9a9a9a } 
		.s1 { fill: url(#g1) } 
	</style>
	<path id="SYSTEMS FZ LLC
" class="s0" d="m31.5 193.6q-4.1 0-8-0.9-3.8-0.9-6.7-2.8-1.4-0.9-1.7-2.2-0.3-1.3 0.2-2.5 0.5-1.2 1.6-1.7 1.2-0.4 2.7 0.5 2.6 1.6 5.6 2.3 3 0.7 6.3 0.7 4.8 0 7-1.6 2.2-1.6 2.2-4.2 0-2.1-1.6-3.3-1.5-1.2-5.3-2l-6.7-1.4q-11.4-2.5-11.4-11.8 0-4 2.1-7 2.1-3 5.9-4.7 3.8-1.6 8.7-1.6 3.7 0 7 0.9 3.3 0.9 5.9 2.7 1.2 0.8 1.5 2.1 0.2 1.2-0.3 2.3-0.6 1.1-1.8 1.5-1.2 0.4-2.7-0.5-2.3-1.3-4.6-1.9-2.3-0.5-5-0.5-4.2 0-6.6 1.7-2.4 1.8-2.4 4.7 0 2.2 1.5 3.5 1.4 1.3 5 2l6.6 1.4q6.1 1.3 9 4.1 3 2.7 3 7.3 0 3.8-2.1 6.7-2.1 3-5.9 4.6-3.8 1.6-9 1.6zm50.5-0.1q-3.9 0-3.9-4.1v-16.2l-13.1-18.3q-0.8-1.1-0.7-2.3 0.1-1.3 1-2.2 0.9-0.9 2.6-0.9 2.4 0 4.1 2.5l10.1 14.3 10.1-14.3q1-1.3 1.9-1.9 0.9-0.6 2.3-0.6 2.3 0 3.1 1.8 0.8 1.7-0.6 3.6l-13 18.4v16.1q0 4.1-3.9 4.1zm50.7 0.1q-4.1 0-8-0.9-3.9-0.9-6.7-2.8-1.4-0.9-1.8-2.2-0.3-1.3 0.2-2.5 0.6-1.2 1.7-1.7 1.1-0.4 2.6 0.5 2.7 1.6 5.7 2.3 3 0.7 6.3 0.7 4.8 0 7-1.6 2.2-1.6 2.2-4.2 0-2.1-1.6-3.3-1.5-1.2-5.3-2l-6.7-1.4q-11.5-2.5-11.5-11.8 0-4 2.1-7 2.2-3 5.9-4.7 3.8-1.6 8.8-1.6 3.6 0 6.9 0.9 3.3 0.9 5.9 2.7 1.3 0.8 1.5 2.1 0.3 1.2-0.3 2.3-0.5 1.1-1.8 1.5-1.1 0.4-2.7-0.5-2.3-1.3-4.6-1.9-2.3-0.5-5-0.5-4.2 0-6.6 1.7-2.4 1.8-2.4 4.7 0 2.2 1.5 3.5 1.5 1.3 5 2l6.7 1.4q6 1.3 8.9 4.1 3 2.7 3 7.3 0 3.8-2.1 6.7-2 3-5.9 4.6-3.8 1.6-8.9 1.6zm50.7-0.1q-3.9 0-3.9-4v-33h-11.9q-3.3 0-3.3-3.3 0-3.2 3.3-3.2h31.6q3.4 0 3.4 3.2 0 3.3-3.4 3.3h-11.9v33q0 4-3.9 4zm63.3-0.5h-21.8q-4.2 0-4.2-4.1v-34.8q0-4.1 4.2-4.1h21.8q3.1 0 3.1 3 0 3.2-3.1 3.2h-18.5v11.9h17.1q3.2 0 3.2 3.1 0 3.1-3.2 3.1h-17.1v12.5h18.5q3.1 0 3.1 3.1 0 3.1-3.1 3.1zm27.8 0.5q-3.5 0-3.5-3.7v-36.6q0-3.7 3.7-3.7 1.5 0 2.3 0.6 1 0.6 1.7 2l14.1 26 14.1-26q0.7-1.4 1.6-2 0.8-0.6 2.3-0.6 3.6 0 3.6 3.7v36.6q0 3.7-3.6 3.7-3.5 0-3.5-3.7v-25.8l-11.5 20.9q-0.6 1.1-1.2 1.6-0.7 0.5-1.9 0.5-1.1 0-1.9-0.5-0.7-0.6-1.3-1.6l-11.4-20.8v25.7q0 3.7-3.6 3.7zm77.9 0.1q-4.1 0-8-0.9-3.9-0.9-6.7-2.8-1.4-0.9-1.7-2.2-0.3-1.3 0.2-2.5 0.5-1.2 1.6-1.7 1.2-0.4 2.6 0.5 2.7 1.6 5.7 2.3 3 0.7 6.3 0.7 4.8 0 7-1.6 2.2-1.6 2.2-4.2 0-2.1-1.6-3.3-1.5-1.2-5.3-2l-6.7-1.4q-11.5-2.5-11.5-11.8 0-4 2.2-7 2.1-3 5.9-4.7 3.8-1.6 8.7-1.6 3.7 0 6.9 0.9 3.3 0.9 6 2.7 1.2 0.8 1.4 2.1 0.3 1.2-0.3 2.3-0.5 1.1-1.7 1.5-1.2 0.4-2.8-0.5-2.2-1.3-4.6-1.9-2.3-0.5-5-0.5-4.2 0-6.6 1.7-2.3 1.8-2.3 4.7 0 2.2 1.4 3.5 1.5 1.3 5 2l6.7 1.4q6 1.3 8.9 4.1 3 2.7 3 7.3 0 3.8-2 6.7-2.1 3-6 4.6-3.7 1.6-8.9 1.6zm71.7-0.1q-4.1 0-4.1-4.2v-35.2q0-4.1 4.2-4.1h21.3q3.1 0 3.1 3 0 3.2-3.1 3.2h-17.7v12.2h16.4q3.2 0 3.2 3 0 3.2-3.2 3.2h-16.4v14.7q0 4.2-3.7 4.2zm71.3-0.5h-26.2q-2 0-3.1-1-0.9-1.1-0.8-2.8 0.2-1.8 1.5-3.6l21.5-29.1h-19.7q-3.5 0-3.5-3.3 0-3.2 3.5-3.2h25.2q2.1 0 3 1.1 1.1 1 0.9 2.7-0.1 1.7-1.5 3.6l-21.5 29.1h20.7q3.4 0 3.4 3.2 0 3.3-3.4 3.3zm78.4 0h-21.5q-4 0-4-4v-35.2q0-4 3.9-4 3.9 0 3.9 4v32.6h17.7q3.4 0 3.4 3.2 0 3.4-3.4 3.4zm48 0h-21.5q-4 0-4-4v-35.2q0-4 3.9-4 3.9 0 3.9 4v32.6h17.7q3.4 0 3.4 3.2 0 3.4-3.4 3.4zm40.2 0.6q-6.7 0-11.5-2.7-4.8-2.7-7.3-7.7-2.6-5-2.6-11.7 0-6.8 2.6-11.7 2.5-5 7.3-7.7 4.8-2.7 11.5-2.7 3.4 0 6.6 0.8 3.2 0.9 5.7 2.5 1.6 1 1.9 2.5 0.3 1.4-0.4 2.6-0.7 1.2-2 1.6-1.4 0.4-3-0.7-1.9-1.3-4.1-1.8-2.2-0.6-4.4-0.6-6.6 0-10 4-3.4 3.9-3.4 11.2 0 7.2 3.4 11.2 3.4 4 10 4 2.3 0 4.5-0.6 2.3-0.6 4.3-1.8 1.7-1.1 2.9-0.7 1.3 0.4 1.9 1.5 0.7 1.1 0.5 2.5-0.3 1.3-1.7 2.3-2.4 1.8-5.9 2.8-3.3 0.9-6.8 0.9z"/>
	<path id="L
" class="s1" d="m88.4 136h-58.6q-7.9 0-12.1-4.2-4.2-4.4-4.2-12.1v-90.9q0-7.8 4.2-12 4.2-4.2 11.9-4.2 7.7 0 11.9 4.2 4.2 4.2 4.2 12v80.4h42.7q6.6 0 10.1 3.5 3.7 3.5 3.7 9.8 0 6.5-3.7 10-3.5 3.5-10.1 3.5zm114.2 0h-59.3q-16.8 0-16.8-16.6v-90.1q0-16.6 16.8-16.6h59.3q12.6 0 12.6 12.3 0 12.6-12.6 12.6h-45.3v23.4h41.5q12.5 0 12.5 12.4 0 12.4-12.5 12.4h-41.5v25.4h45.3q12.6 0 12.6 12.4 0 12.4-12.6 12.4zm232-1h-59.3q-16.8 0-16.8-16.6v-90.1q0-16.6 16.8-16.6h59.3q12.6 0 12.6 12.3 0 12.6-12.6 12.6h-45.3v23.4h101.5q12.5 0 12.5 12.4 0 12.4-12.5 12.4h-101.5v25.4h45.3q12.6 0 12.6 12.4 0 12.4-12.6 12.4zm54.2 0h59.3q16.7 0 16.7-16.6v-90.1q0-16.6-16.7-16.6h-59.3q-12.6 0-12.6 12.3 0 12.6 12.6 12.6h45.3v23.4h-41.5q-12.6 0-12.6 12.4 0 12.4 12.6 12.4h41.5v25.4h-45.3q-12.6 0-12.6 12.4 0 12.4 12.6 12.4zm-228 2.6q-7.7 0-12.1-4.2-4.2-4.4-4.2-12.4v-91.7q0-16.6 16.8-16.6h58.3q12.5 0 12.5 12.3 0 12.6-12.5 12.6h-42.9v24.8h39q12.6 0 12.6 12.2 0 12.4-12.6 12.4h-39v34q0 16.6-15.9 16.6zm354 0q-7.7 0-12.1-4.2-4.2-4.4-4.2-12.4v-91.7q0-16.6 16.8-16.6h58.3q12.5 0 12.5 12.3 0 12.6-12.5 12.6h-42.9v24.8h39q12.6 0 12.6 12.2 0 12.4-12.6 12.4h-39v34q0 16.6-15.9 16.6z"/>
</svg>